<svg version="1.1" id="Layer_1" xmlns="http://www.w3.org/2000/svg" xmlns:xlink="http://www.w3.org/1999/xlink" x="0px" y="0px"
	 width="100%" viewBox="0 0 1254 1254" enable-background="new 0 0 1254 1254" xml:space="preserve">
<path fill="#FEFDFD" opacity="1.000000" stroke="none" 
	d="
M796.000000,1255.000000 
	C530.666687,1255.000000 265.833344,1255.000000 1.000000,1255.000000 
	C1.000000,837.000000 1.000000,419.000000 1.000000,1.000000 
	C419.000000,1.000000 837.000000,1.000000 1255.000000,1.000000 
	C1255.000000,419.000000 1255.000000,837.000000 1255.000000,1255.000000 
	C1102.166626,1255.000000 949.333313,1255.000000 796.000000,1255.000000 
M805.500000,1036.141357 
	C855.997681,1036.145996 906.495361,1036.171265 956.993042,1036.143188 
	C973.036255,1036.134277 982.744812,1026.353394 982.745667,1010.340759 
	C982.753601,868.509949 982.755798,726.679077 982.759766,584.848267 
	C982.759888,581.256287 982.759766,577.664246 982.759766,573.826050 
	C1004.635071,573.826050 1025.782715,573.825439 1046.930420,573.826294 
	C1059.823975,573.826782 1068.828369,567.805542 1073.108765,556.317993 
	C1076.938232,546.040649 1073.690796,533.830566 1064.881592,526.206665 
	C1059.357300,521.425659 1053.624268,516.886047 1047.985474,512.237366 
	C1018.748291,488.134796 989.538147,463.999298 960.234375,439.977966 
	C957.181274,437.475220 955.797607,434.887787 955.811157,430.791718 
	C955.972717,381.959808 955.943604,333.127228 955.939331,284.294830 
	C955.938293,272.488800 948.420166,265.034332 936.575134,265.031921 
	C907.408997,265.025940 878.242920,265.040863 849.076782,265.044128 
	C837.610535,265.045410 830.116699,272.562073 830.122986,284.087280 
	C830.130554,297.920044 830.152893,311.752808 830.168030,325.585571 
	C830.170288,327.634064 830.168335,329.682526 830.168335,332.916595 
	C820.397888,324.783875 811.774231,317.529541 803.069336,310.374084 
	C775.087463,287.372864 747.062744,264.423859 719.079529,241.424362 
	C696.616943,222.962326 674.292480,204.330688 651.710083,186.016769 
	C638.234558,175.088394 618.042053,175.409653 604.592712,186.297562 
	C594.785339,194.237137 585.006226,202.212341 575.271790,210.241165 
	C543.839600,236.166000 512.445068,262.136536 481.015045,288.064026 
	C445.360321,317.476532 409.692902,346.873718 374.012238,376.254791 
	C345.155090,400.017090 316.254944,423.727142 287.401703,447.494110 
	C255.714172,473.595734 224.040939,499.714783 192.400223,525.873108 
	C183.411087,533.304749 180.030060,545.735474 183.873138,556.419922 
	C187.882843,567.567627 197.158936,573.845764 209.596695,573.838257 
	C229.096329,573.826538 248.595978,573.818848 268.095612,573.809570 
	C269.831024,573.808716 271.566437,573.809448 273.465179,573.809448 
	C273.465179,577.114685 273.465363,579.612732 273.465149,582.110779 
	C273.453430,724.941223 273.444092,867.771667 273.426361,1010.602112 
	C273.424438,1026.093262 283.488556,1036.184448 299.009186,1036.183228 
	C467.506134,1036.170288 636.003052,1036.156128 805.500000,1036.141357 
z"/>
<path fill="#D40202" opacity="1.000000" stroke="none" 
	d="
M805.000000,1036.141846 
	C636.003052,1036.156128 467.506134,1036.170288 299.009186,1036.183228 
	C283.488556,1036.184448 273.424438,1026.093262 273.426361,1010.602112 
	C273.444092,867.771667 273.453430,724.941223 273.465149,582.110779 
	C273.465363,579.612732 273.465179,577.114685 273.465179,573.809448 
	C271.566437,573.809448 269.831024,573.808716 268.095612,573.809570 
	C248.595978,573.818848 229.096329,573.826538 209.596695,573.838257 
	C197.158936,573.845764 187.882843,567.567627 183.873138,556.419922 
	C180.030060,545.735474 183.411087,533.304749 192.400223,525.873108 
	C224.040939,499.714783 255.714172,473.595734 287.401703,447.494110 
	C316.254944,423.727142 345.155090,400.017090 374.012238,376.254791 
	C409.692902,346.873718 445.360321,317.476532 481.015045,288.064026 
	C512.445068,262.136536 543.839600,236.166000 575.271790,210.241165 
	C585.006226,202.212341 594.785339,194.237137 604.592712,186.297562 
	C618.042053,175.409653 638.234558,175.088394 651.710083,186.016769 
	C674.292480,204.330688 696.616943,222.962326 719.079529,241.424362 
	C747.062744,264.423859 775.087463,287.372864 803.069336,310.374084 
	C811.774231,317.529541 820.397888,324.783875 830.168335,332.916595 
	C830.168335,329.682526 830.170288,327.634064 830.168030,325.585571 
	C830.152893,311.752808 830.130554,297.920044 830.122986,284.087280 
	C830.116699,272.562073 837.610535,265.045410 849.076782,265.044128 
	C878.242920,265.040863 907.408997,265.025940 936.575134,265.031921 
	C948.420166,265.034332 955.938293,272.488800 955.939331,284.294830 
	C955.943604,333.127228 955.972717,381.959808 955.811157,430.791718 
	C955.797607,434.887787 957.181274,437.475220 960.234375,439.977966 
	C989.538147,463.999298 1018.748291,488.134796 1047.985474,512.237366 
	C1053.624268,516.886047 1059.357300,521.425659 1064.881592,526.206665 
	C1073.690796,533.830566 1076.938232,546.040649 1073.108765,556.317993 
	C1068.828369,567.805542 1059.823975,573.826782 1046.930420,573.826294 
	C1025.782715,573.825439 1004.635071,573.826050 982.759766,573.826050 
	C982.759766,577.664246 982.759888,581.256287 982.759766,584.848267 
	C982.755798,726.679077 982.753601,868.509949 982.745667,1010.340759 
	C982.744812,1026.353394 973.036255,1036.134277 956.993042,1036.143188 
	C906.495361,1036.171265 855.997681,1036.145996 805.000000,1036.141846 
M600.500183,604.554382 
	C566.009888,604.567871 531.519470,604.535156 497.029633,604.669250 
	C493.734985,604.682068 492.567474,603.643799 491.708405,600.472412 
	C486.538605,581.388123 481.152405,562.361084 475.682098,543.359985 
	C472.741516,533.145752 467.340698,529.296692 456.818848,529.307007 
	C432.658325,529.330688 408.497833,529.343201 384.337311,529.340576 
	C374.368469,529.339478 367.105591,536.090576 367.122437,545.401184 
	C367.138855,554.479919 374.286469,561.216125 384.084900,561.231323 
	C401.246979,561.257874 418.409271,561.232605 435.571320,561.171570 
	C447.842529,561.127991 447.867065,561.079163 451.235962,573.134460 
	C467.435883,631.105164 483.677917,689.064331 499.776550,747.063171 
	C504.440735,763.866882 509.131927,780.686279 512.976501,797.687195 
	C516.371399,812.699524 518.420227,828.011047 521.404968,843.122986 
	C524.099976,856.767517 534.374695,865.178589 548.263123,865.188965 
	C624.910400,865.246399 701.557617,865.221375 778.204895,865.177917 
	C788.038818,865.172363 794.898987,858.490723 794.865112,849.276367 
	C794.832336,840.383911 787.450745,833.510437 777.892944,833.513245 
	C721.741394,833.529724 665.589844,833.548584 609.438293,833.579956 
	C591.276611,833.590088 573.114563,833.699646 554.954102,833.564758 
	C553.426147,833.553467 550.786621,832.253723 550.565308,831.165771 
	C548.792603,822.451294 547.477905,813.643738 545.919128,804.237305 
	C549.158936,804.237305 551.953796,804.237061 554.748657,804.237305 
	C628.730164,804.244629 702.711609,804.258301 776.693115,804.252075 
	C787.171570,804.251221 792.772095,799.972168 795.577881,790.052979 
	C800.546326,772.487976 805.503540,754.919678 810.532043,737.371826 
	C821.145874,700.333313 831.809570,663.309143 842.437073,626.274536 
	C845.205688,616.626587 841.164001,608.001709 832.322083,605.464600 
	C829.199768,604.568726 825.746399,604.595154 822.443970,604.593140 
	C748.796082,604.547424 675.148132,604.556763 600.500183,604.554382 
M592.733521,923.956421 
	C592.457336,920.012207 592.617798,915.978943 591.834045,912.138306 
	C586.787720,887.409546 558.376770,875.582214 537.261230,889.294800 
	C523.823303,898.021362 517.529785,914.685913 522.029724,929.625488 
	C526.802124,945.469604 540.512390,955.708801 556.908997,955.674377 
	C574.239258,955.638000 588.520691,943.209717 592.733521,923.956421 
M710.444397,909.173584 
	C709.919922,911.593323 709.161987,913.988953 708.909241,916.436768 
	C707.408203,930.978516 715.826172,945.821289 728.944702,951.983765 
	C742.872131,958.526306 759.348816,956.003479 769.608887,945.757629 
	C781.027954,934.354309 784.197754,918.005981 777.239990,904.173523 
	C769.908936,889.599182 757.779297,882.442444 741.548157,883.809204 
	C726.129700,885.107483 716.082458,894.075012 710.444397,909.173584 
z"/>
<path fill="#FDFAFA" opacity="1.000000" stroke="none" 
	d="
M601.000244,604.555054 
	C675.148132,604.556763 748.796082,604.547424 822.443970,604.593140 
	C825.746399,604.595154 829.199768,604.568726 832.322083,605.464600 
	C841.164001,608.001709 845.205688,616.626587 842.437073,626.274536 
	C831.809570,663.309143 821.145874,700.333313 810.532043,737.371826 
	C805.503540,754.919678 800.546326,772.487976 795.577881,790.052979 
	C792.772095,799.972168 787.171570,804.251221 776.693115,804.252075 
	C702.711609,804.258301 628.730164,804.244629 554.748657,804.237305 
	C551.953796,804.237061 549.158936,804.237305 545.919128,804.237305 
	C547.477905,813.643738 548.792603,822.451294 550.565308,831.165771 
	C550.786621,832.253723 553.426147,833.553467 554.954102,833.564758 
	C573.114563,833.699646 591.276611,833.590088 609.438293,833.579956 
	C665.589844,833.548584 721.741394,833.529724 777.892944,833.513245 
	C787.450745,833.510437 794.832336,840.383911 794.865112,849.276367 
	C794.898987,858.490723 788.038818,865.172363 778.204895,865.177917 
	C701.557617,865.221375 624.910400,865.246399 548.263123,865.188965 
	C534.374695,865.178589 524.099976,856.767517 521.404968,843.122986 
	C518.420227,828.011047 516.371399,812.699524 512.976501,797.687195 
	C509.131927,780.686279 504.440735,763.866882 499.776550,747.063171 
	C483.677917,689.064331 467.435883,631.105164 451.235962,573.134460 
	C447.867065,561.079163 447.842529,561.127991 435.571320,561.171570 
	C418.409271,561.232605 401.246979,561.257874 384.084900,561.231323 
	C374.286469,561.216125 367.138855,554.479919 367.122437,545.401184 
	C367.105591,536.090576 374.368469,529.339478 384.337311,529.340576 
	C408.497833,529.343201 432.658325,529.330688 456.818848,529.307007 
	C467.340698,529.296692 472.741516,533.145752 475.682098,543.359985 
	C481.152405,562.361084 486.538605,581.388123 491.708405,600.472412 
	C492.567474,603.643799 493.734985,604.682068 497.029633,604.669250 
	C531.519470,604.535156 566.009888,604.567871 601.000244,604.555054 
M622.499878,772.385559 
	C669.323975,772.360046 716.148254,772.290894 762.972046,772.391052 
	C766.760559,772.399170 768.357910,771.390259 769.435608,767.564819 
	C779.727478,731.031738 790.290894,694.575256 800.734680,658.084839 
	C802.703186,651.206970 804.487122,644.276367 806.437744,637.068604 
	C704.588135,637.068604 603.634399,637.068604 502.280487,637.068604 
	C502.691437,638.891602 502.978638,640.483398 503.410522,642.034851 
	C515.127808,684.128113 526.906433,726.204407 538.505188,768.330261 
	C539.482300,771.879089 541.245544,772.509216 544.515503,772.492737 
	C570.176514,772.363281 595.838318,772.400696 622.499878,772.385559 
z"/>
<path fill="#FDFAFA" opacity="1.000000" stroke="none" 
	d="
M592.579712,924.361328 
	C588.520691,943.209717 574.239258,955.638000 556.908997,955.674377 
	C540.512390,955.708801 526.802124,945.469604 522.029724,929.625488 
	C517.529785,914.685913 523.823303,898.021362 537.261230,889.294800 
	C558.376770,875.582214 586.787720,887.409546 591.834045,912.138306 
	C592.617798,915.978943 592.457336,920.012207 592.579712,924.361328 
z"/>
<path fill="#FDFAFA" opacity="1.000000" stroke="none" 
	d="
M710.537476,908.775391 
	C716.082458,894.075012 726.129700,885.107483 741.548157,883.809204 
	C757.779297,882.442444 769.908936,889.599182 777.239990,904.173523 
	C784.197754,918.005981 781.027954,934.354309 769.608887,945.757629 
	C759.348816,956.003479 742.872131,958.526306 728.944702,951.983765 
	C715.826172,945.821289 707.408203,930.978516 708.909241,916.436768 
	C709.161987,913.988953 709.919922,911.593323 710.537476,908.775391 
z"/>
<path fill="#D40202" opacity="1.000000" stroke="none" 
	d="
M621.999878,772.386108 
	C595.838318,772.400696 570.176514,772.363281 544.515503,772.492737 
	C541.245544,772.509216 539.482300,771.879089 538.505188,768.330261 
	C526.906433,726.204407 515.127808,684.128113 503.410522,642.034851 
	C502.978638,640.483398 502.691437,638.891602 502.280487,637.068604 
	C603.634399,637.068604 704.588135,637.068604 806.437744,637.068604 
	C804.487122,644.276367 802.703186,651.206970 800.734680,658.084839 
	C790.290894,694.575256 779.727478,731.031738 769.435608,767.564819 
	C768.357910,771.390259 766.760559,772.399170 762.972046,772.391052 
	C716.148254,772.290894 669.323975,772.360046 621.999878,772.386108 
z"/>
</svg>