<svg version="1.1" id="Layer_1" xmlns="http://www.w3.org/2000/svg" xmlns:xlink="http://www.w3.org/1999/xlink" x="0px" y="0px"
	 width="100%" viewBox="0 0 1254 1254" enable-background="new 0 0 1254 1254" xml:space="preserve">
<path fill="#CF0201" opacity="1.000000" stroke="none"
	d="
M806.000000,1255.000000
	C537.333313,1255.000000 269.166656,1255.000000 1.000000,1255.000000
	C1.000000,837.000000 1.000000,419.000000 1.000000,1.000000
	C419.000000,1.000000 837.000000,1.000000 1255.000000,1.000000
	C1255.000000,419.000000 1255.000000,837.000000 1255.000000,1255.000000
	C1105.500000,1255.000000 956.000000,1255.000000 806.000000,1255.000000
M796.499756,1039.565186
	C849.990845,1039.544922 903.481873,1039.504517 956.972961,1039.523682
	C966.109802,1039.526978 973.934937,1036.469238 978.502930,1028.486938
	C981.021545,1024.085815 982.789673,1018.548462 982.797241,1013.520203
	C983.009338,872.205444 982.953125,730.890381 982.940979,589.575317
	C982.940552,584.972473 982.940918,580.369629 982.940918,575.258179
	C987.125061,575.258179 990.593262,575.257202 994.061462,575.258301
	C1012.892273,575.264160 1031.723267,575.308533 1050.553955,575.259155
	C1058.786011,575.237610 1065.343628,571.760803 1070.030396,565.004089
	C1078.898926,552.218262 1076.442993,536.456421 1064.038452,526.244629
	C1029.322510,497.665314 994.610962,469.080688 959.831421,440.579041
	C957.313293,438.515411 956.054993,436.455780 956.179993,433.064423
	C956.455933,425.575653 956.266418,418.069702 956.265320,410.570740
	C956.259338,368.743073 956.270691,326.915375 956.234985,285.087738
	C956.225037,273.448090 948.781982,265.996399 937.248108,265.989960
	C907.585266,265.973419 877.922424,265.962830 848.259644,266.004028
	C838.285278,266.017883 830.958435,273.385742 830.928345,283.373840
	C830.882751,298.538300 830.915588,313.702942 830.915039,328.867523
	C830.914978,330.267242 830.915039,331.666931 830.915039,333.886871
	C828.943237,332.385254 827.754211,331.540985 826.631592,330.615967
	C768.802673,282.963745 710.982727,235.300629 653.153015,187.649384
	C639.071411,176.046280 619.762085,175.865463 605.820923,187.408203
	C546.163574,236.802185 486.591522,286.299347 426.921021,335.677490
	C363.147858,388.450653 299.301636,441.135468 235.481522,493.851807
	C221.227203,505.626129 206.811996,517.210388 192.729752,529.186584
	C183.481216,537.051941 180.720032,548.851318 184.889847,559.449219
	C189.132141,570.231384 197.958344,575.970337 210.276764,575.954224
	C229.274261,575.929382 248.271759,575.903198 267.269257,575.878296
	C269.357330,575.875610 271.445435,575.877930 273.902069,575.877930
	C273.902069,579.439697 273.902130,582.248230 273.902069,585.056824
	C273.899628,679.044678 273.896820,773.032532 273.894897,867.020386
	C273.893921,915.847351 273.825592,964.674438 273.935303,1013.501099
	C273.969299,1028.637817 284.986969,1039.624268 299.565369,1039.622559
	C464.876801,1039.603271 630.188232,1039.583130 796.499756,1039.565186
z"/>
<path fill="#FDFBFB" opacity="1.000000" stroke="none"
	d="
M795.999695,1039.564209
	C630.188232,1039.583130 464.876801,1039.603271 299.565369,1039.622559
	C284.986969,1039.624268 273.969299,1028.637817 273.935303,1013.501099
	C273.825592,964.674438 273.893921,915.847351 273.894897,867.020386
	C273.896820,773.032532 273.899628,679.044678 273.902069,585.056824
	C273.902130,582.248230 273.902069,579.439697 273.902069,575.877930
	C271.445435,575.877930 269.357330,575.875610 267.269257,575.878296
	C248.271759,575.903198 229.274261,575.929382 210.276764,575.954224
	C197.958344,575.970337 189.132141,570.231384 184.889847,559.449219
	C180.720032,548.851318 183.481216,537.051941 192.729752,529.186584
	C206.811996,517.210388 221.227203,505.626129 235.481522,493.851807
	C299.301636,441.135468 363.147858,388.450653 426.921021,335.677490
	C486.591522,286.299347 546.163574,236.802185 605.820923,187.408203
	C619.762085,175.865463 639.071411,176.046280 653.153015,187.649384
	C710.982727,235.300629 768.802673,282.963745 826.631592,330.615967
	C827.754211,331.540985 828.943237,332.385254 830.915039,333.886871
	C830.915039,331.666931 830.914978,330.267242 830.915039,328.867523
	C830.882751,298.538300 830.928345,283.373840 838.285278,266.017883
	C848.259644,266.004028 877.922424,265.962830 907.585266,265.973419
	C937.248108,265.989960 956.225037,273.448090 956.234985,285.087738
	C956.270691,326.915375 956.259338,368.743073 956.265320,410.570740
	C956.266418,418.069702 956.455933,425.575653 956.179993,433.064423
	C956.054993,436.455780 957.313293,438.515411 959.831421,440.579041
	C994.610962,469.080688 1029.322510,497.665314 1064.038452,526.244629
	C1076.442993,536.456421 1078.898926,552.218262 1070.030396,565.004089
	C1065.343628,571.760803 1058.786011,575.237610 1050.553955,575.259155
	C1031.723267,575.308533 1012.892273,575.264160 994.061462,575.258301
	C990.593262,575.257202 987.125061,575.258179 982.940918,575.258179
	C982.940918,580.369629 982.940552,584.972473 982.940979,589.575317
	C982.953125,730.890381 983.009338,872.205444 982.797241,1013.520203
	C982.789673,1018.548462 981.021545,1024.085815 978.502930,1028.486938
	C973.934937,1036.469238 966.109802,1039.526978 956.972961,1039.523682
	C903.481873,1039.504517 849.990845,1039.544922 795.999695,1039.564209
M455.793304,589.820374
	C469.563171,638.800781 483.495819,687.736267 497.031097,736.781433
	C503.358643,759.709290 509.225037,782.776428 514.703979,805.921692
	C517.720337,818.663818 519.221313,831.757202 521.910645,844.586304
	C524.939880,859.037048 534.936584,866.726013 549.657654,866.696289
	C560.323181,866.674744 570.988708,866.640747 581.654236,866.643555
	C646.647705,866.660706 711.641174,866.698059 776.634644,866.699341
	C787.943115,866.699585 794.743958,860.567444 794.899597,850.744385
	C795.039856,841.892639 786.370789,835.047302 776.719727,835.088074
	C709.060913,835.373596 641.400391,835.231079 573.740356,835.232422
	C567.574402,835.232544 561.405151,835.394531 555.244934,835.219360
	C553.904053,835.181274 551.602112,834.218384 551.424744,833.341309
	C549.591675,824.276978 548.104004,815.142944 546.459961,805.681824
	C548.403198,805.533630 549.858276,805.326965 551.313538,805.325806
	C577.810852,805.304016 604.308105,805.302307 630.805420,805.305603
	C679.634033,805.311646 728.462585,805.329590 777.291199,805.328186
	C786.168396,805.327942 792.330383,800.944153 794.577881,793.093689
	C802.988953,763.713318 811.333191,734.313599 819.817444,704.954346
	C827.288208,679.102173 834.989746,653.316528 842.434937,627.457092
	C845.883179,615.480408 838.972778,606.429199 826.576538,606.318665
	C822.077942,606.278564 817.578064,606.414368 813.078735,606.414856
	C708.089478,606.426636 603.100220,606.408630 498.111053,606.531128
	C494.559113,606.535278 493.228027,605.416443 492.343872,602.149109
	C487.220184,583.214966 481.898834,564.334351 476.635620,545.437988
	C473.721191,534.974365 468.307007,530.861572 457.546265,530.863525
	C433.382019,530.867920 409.217743,530.860168 385.053497,530.855835
	C374.537598,530.854004 367.527039,537.255615 367.341278,547.034180
	C367.160767,556.536133 374.445282,563.548340 384.720703,563.601257
	C399.385651,563.676819 414.051086,563.653381 428.716309,563.667419
	C435.344696,563.673767 441.973083,563.668518 448.676270,563.668518
	C451.019501,572.414062 453.250488,580.740845 455.793304,589.820374
M592.365601,912.233398
	C587.390869,895.232117 573.783569,884.811401 556.803223,884.999023
	C535.127502,885.238586 519.229858,903.447632 521.363342,925.591675
	C523.306763,945.763733 543.297485,960.248596 563.818481,956.561768
	C582.989441,953.117615 597.446777,933.455750 592.365601,912.233398
M718.594177,945.891724
	C726.170959,953.417725 735.138977,957.302124 745.977722,956.973816
	C760.326233,956.539062 771.030090,949.954529 777.249634,937.342346
	C783.885986,923.885132 782.737671,910.354919 773.380493,898.381714
	C764.477600,886.989685 752.138794,882.918640 738.215088,885.700317
	C710.342712,891.268616 699.857910,922.917358 718.594177,945.891724
z"/>
<path fill="#CE0606" opacity="1.000000" stroke="none"
	d="
M455.637390,589.443970
	C453.250488,580.740845 451.019501,572.414062 448.676270,563.668518
	C441.973083,563.668518 435.344696,563.673767 428.716309,563.667419
	C414.051086,563.653381 399.385651,563.676819 384.720703,563.601257
	C374.445282,563.548340 367.160767,556.536133 367.341278,547.034180
	C367.527039,537.255615 374.537598,530.854004 385.053497,530.855835
	C409.217743,530.860168 433.382019,530.867920 457.546265,530.863525
	C468.307007,530.861572 473.721191,534.974365 476.635620,545.437988
	C481.898834,564.334351 487.220184,583.214966 492.343872,602.149109
	C493.228027,605.416443 494.559113,606.535278 498.111053,606.531128
	C603.100220,606.408630 708.089478,606.426636 813.078735,606.414856
	C817.578064,606.414368 822.077942,606.278564 826.576538,606.318665
	C838.972778,606.429199 845.883179,615.480408 842.434937,627.457092
	C834.989746,653.316528 827.288208,679.102173 819.817444,704.954346
	C811.333191,734.313599 802.988953,763.713318 794.577881,793.093689
	C792.330383,800.944153 786.168396,805.327942 777.291199,805.328186
	C728.462585,805.329590 679.634033,805.311646 630.805420,805.305603
	C604.308105,805.302307 577.810852,805.304016 551.313538,805.325806
	C549.858276,805.326965 548.403198,805.533630 546.459961,805.681824
	C548.104004,815.142944 549.591675,824.276978 551.424744,833.341309
	C551.602112,834.218384 553.904053,835.181274 555.244934,835.219360
	C561.405151,835.394531 567.574402,835.232544 573.740356,835.232422
	C641.400391,835.231079 709.060913,835.373596 776.719727,835.088074
	C786.370789,835.047302 795.039856,841.892639 794.899597,850.744385
	C794.743958,860.567444 787.943115,866.699585 776.634644,866.699341
	C711.641174,866.698059 646.647705,866.660706 581.654236,866.643555
	C570.988708,866.640747 560.323181,866.674744 549.657654,866.696289
	C534.936584,866.726013 524.939880,859.037048 521.910645,844.586304
	C519.221313,831.757202 517.720337,818.663818 514.703979,805.921692
	C509.225037,782.776428 503.358643,759.709290 497.031097,736.781433
	C483.495819,687.736267 469.563171,638.800781 455.637390,589.443970
M601.499939,774.257507
	C655.330505,774.235291 709.161194,774.174622 762.991516,774.280518
	C766.459778,774.287354 767.910950,773.284424 768.854797,769.981140
	C780.590576,728.906921 792.466309,687.872620 804.282898,646.821411
	C804.950500,644.502136 805.416992,642.125000 805.970642,639.801758
	C704.687378,639.801758 604.005066,639.801758 503.185608,639.801758
	C503.384064,641.033752 503.426270,641.707764 503.604492,642.343628
	C515.606079,685.163879 527.656433,727.970642 539.554688,770.819519
	C540.458252,774.073364 542.270203,774.340149 545.004150,774.327759
	C563.502441,774.243652 582.001221,774.266968 601.499939,774.257507
z"/>
<path fill="#CF0505" opacity="1.000000" stroke="none"
	d="
M592.531738,912.609131
	C597.446777,933.455750 582.989441,953.117615 563.818481,956.561768
	C543.297485,960.248596 523.306763,945.763733 521.363342,925.591675
	C519.229858,903.447632 535.127502,885.238586 556.803223,884.999023
	C573.783569,884.811401 587.390869,895.232117 592.531738,912.609131
z"/>
<path fill="#CF0505" opacity="1.000000" stroke="none"
	d="
M718.352356,945.632507
	C699.857910,922.917358 710.342712,891.268616 738.215088,885.700317
	C752.138794,882.918640 764.477600,886.989685 773.380493,898.381714
	C782.737671,910.354919 783.885986,923.885132 777.249634,937.342346
	C771.030090,949.954529 760.326233,956.539062 745.977722,956.973816
	C735.138977,957.302124 726.170959,953.417725 718.352356,945.632507
z"/>
<path fill="#FCFBFA" opacity="1.000000" stroke="none"
	d="
M600.999878,774.256531
	C582.001221,774.266968 563.502441,774.243652 545.004150,774.327759
	C542.270203,774.340149 540.458252,774.073364 539.554688,770.819519
	C527.656433,727.970642 515.606079,685.163879 503.604492,642.343628
	C503.426270,641.707764 503.384064,641.033752 503.185608,639.801758
	C604.005066,639.801758 704.687378,639.801758 805.970642,639.801758
	C805.416992,642.125000 804.950500,644.502136 804.282898,646.821411
	C792.466309,687.872620 780.590576,728.906921 768.854797,769.981140
	C767.910950,773.284424 766.459778,774.287354 762.991516,774.280518
	C709.161194,774.174622 655.330505,774.235291 600.999878,774.256531
z"/>
</svg>
